- 
http://www.Speed.Cd 
       
http://www.Speed.Cd      fast  and The Hottest Private Tracker on the net

(((--Registration will be open on june every weekend--)))

Please Seed back to make the speed Faster!!!

------------------nfo--------------------------
-[img]http://img842.imageshack.us/img842/5374/theconspiratorbluray.jpg[/img]


[color=blue][size=5][b]The.Conspirator.2010.BDRip.XVID.AC3.HQ.Hive-CM8[/b][/size][/color]


[b]Thx Hive

CM8 Doing It Right The First Time :D


Source: Bluray

Video: 720x304 @bitrate 1600 2pass
Audio: English DTS to AC3 5.1 @448
Sample: yes included
Subs: yes english in srt /subs[/b]


[url]http://www.imdb.com/title/tt0968264/[/url]


General
Complete name                    : The.Conspirator.2010.BDRip.XVID.AC3.HQ.Hive-CM8.avi
Format                           : AVI
Format/Info                      : Audio Video Interleave
File size                        : 1.79 GiB
Duration                         : 2h 2mn
Overall bit rate                 : 2 096 Kbps
Writing application              : Nandub v1.0rc2
Writing library                  : Nandub build 1853/release

Video
ID                               : 0
Format                           : MPEG-4 Visual
Format profile                   : Advanced Simple@L5
Format settings, BVOP            : 1
Format settings, QPel            : Yes
Format settings, GMC             : No warppoints
Format settings, Matrix          : Default (H.263)
Muxing mode                      : Packed bitstream
Codec ID                         : XVID
Codec ID/Hint                    : XviD
Duration                         : 2h 2mn
Bit rate                         : 1 639 Kbps
Width                            : 720 pixels
Height                           : 304 pixels
Display aspect ratio             : 2.40:1
Frame rate                       : 23.976 fps
Color space                      : YUV
Chroma subsampling               : 4:2:0
Bit depth                        : 8 bits
Scan type                        : Progressive
Compression mode                 : Lossy
Bits/(Pixel*Frame)               : 0.312
Stream size                      : 1.40 GiB (78%)
Writing library                  : XviD 1.2.1 (UTC 2008-12-04)

Audio
ID                               : 1
Format                           : AC-3
Format/Info                      : Audio Coding 3
Mode extension                   : CM (complete main)
Codec ID                         : 2000
Duration                         : 2h 2mn
Bit rate mode                    : Constant
Bit rate                         : 448 Kbps
Channel(s)                       : 6 channels
Channel positions                : Front: L C R, Side: L R, LFE
Sampling rate                    : 48.0 KHz
Bit depth                        : 16 bits
Compression mode                 : Lossy
Stream size                      : 392 MiB (21%)
Alignment                        : Split accross interleaves
Interleave, duration             : 42 ms (1.00 video frame)
Interleave, preload duration     : 500 ms


Plot:
Mary Surratt is the lone female charged as a co-conspirator in the assassination trial of
Abraham Lincoln. As the whole nation turns against her, she is forced to rely on her
reluctant lawyer to uncover the truth and save her life.


Cast:
James McAvoy     ...    Frederick Aiken
Robin Wright     ...    Mary Surratt
Kevin Kline      ...    Edwin Stanton
Tom Wilkinson    ...    Reverdy Johnson
Evan Rachel Wood ...    Anna Surratt
Justin Long      ...    Nicholas Baker


[img]http://img217.imageshack.us/img217/8085/49196518.png[/img]
[img]http://img846.imageshack.us/img846/2596/cocob.png[/img]
[img]http://img713.imageshack.us/img713/9292/cococo.png[/img]
[img]http://img15.imageshack.us/img15/2522/cocococo.png[/img]
[img]http://img30.imageshack.us/img30/5752/cococococo.png[/img]
[img]http://img52.imageshack.us/img52/8351/cocococococo.png[/img]
[img]http://img855.imageshack.us/img855/5665/cococococococo.png[/img]



Greetz

ViSiON,SiC,SANTi,3LT0N,YanKeeS,MAGNET,THC,T0XiC,LKRG,FANTASIA-PLAY,FANTASIA-M,BHRG,WBZ
D2U,IMAGiNE,FLAWL3SS,NOVA,Vik,Rapeseed,SAFC,goldadvance,MEMORY100,scumbag,Hero5,Pinnz
Unevano,KaN1vE,Wayne,cedrict wink,Mr Hive and all P2P groups
Great Work Guys :D

FYS

CM8@hushmail.com